<?xml version="1.0" encoding="UTF-8" standalone="no"?>
<!-- Created with Inkscape (http://www.inkscape.org/) -->

<svg
   version="1.1"
   id="svg2"
   width="280.58667"
   height="588.08002"
   viewBox="0 0 280.58667 588.08002"
   sodipodi:docname="7020105.eps"
   xmlns:inkscape="http://www.inkscape.org/namespaces/inkscape"
   xmlns:sodipodi="http://sodipodi.sourceforge.net/DTD/sodipodi-0.dtd"
   xmlns="http://www.w3.org/2000/svg"
   xmlns:svg="http://www.w3.org/2000/svg">
  <defs
     id="defs6" />
  <sodipodi:namedview
     id="namedview4"
     pagecolor="#ffffff"
     bordercolor="#000000"
     borderopacity="0.25"
     inkscape:showpageshadow="2"
     inkscape:pageopacity="0.0"
     inkscape:pagecheckerboard="0"
     inkscape:deskcolor="#d1d1d1" />
  <g
     id="g8"
     inkscape:groupmode="layer"
     inkscape:label="ink_ext_XXXXXX"
     transform="matrix(1.3333333,0,0,-1.3333333,0,588.08)">
    <g
       id="g10"
       transform="scale(0.1)">
      <path
         d="m 1875.27,3903.74 c -6.17,8.18 -11.09,7.06 -15.91,1.39 -1.76,-2.08 -1.23,-4.62 0.46,-6.08 6.57,-5.65 10.78,-1.39 15.45,4.69 z M 808.859,3368.69 c -21.925,1.86 -29.355,-9.43 -25.613,-38.94 24.289,22.99 24.289,22.99 25.613,38.94 z m 790.221,-938.12 c 11.57,-4.74 19.31,1.76 26.19,8.95 8.56,8.95 10.26,19.49 5.6,31.81 -20.69,-6.78 -32.52,-18.45 -31.79,-40.76 z M 855.23,2661.9 c 13.399,31.39 2.305,55.2 -6.257,79.28 -1.164,-24.82 -14.457,-50.36 6.257,-79.28 z m 703.04,1332.9 c -29.34,-13.87 -50.43,-30.67 -69.13,-50.76 29.82,4.73 55.1,15.73 69.13,50.76 z M 602.094,2196.36 c -21.75,-4.8 -29.016,-15.93 -25.981,-36.52 0.825,-5.56 2.004,-11.08 8.09,-12.6 6.793,-1.69 11.652,1.75 15.106,7.71 7.445,12.86 6.781,26.12 2.785,41.41 z m 940.936,546.43 c -4.06,-20.1 -4.52,-35.38 -3.55,-50.72 0.48,-7.56 3.92,-13.54 12.09,-14.52 7.38,-0.89 10.5,5.41 14.09,10.23 2.92,3.92 3.47,9 1.9,13.26 -5.18,14.01 -11.47,27.52 -24.53,41.75 z m -616.401,641.28 c 2.684,-25.59 16.207,-43.02 39.266,-51.94 7.148,36.19 -3.743,49.43 -39.266,51.94 z m 657.261,-956.71 c 4.86,13.16 1.36,26.14 9.18,36.92 7.18,9.92 20.17,13.08 27.17,24.56 -7.79,4.1 -13.37,12.19 -21.38,9.53 -15,-4.98 -26.5,-15.82 -35.28,-28.68 -10.92,-16 -4.74,-29.33 20.31,-42.33 z M 877.973,3507.67 c 6.922,33.63 -3.977,60.24 -28.539,70.88 -11.254,4.88 -19.778,0.53 -21.895,-11.46 -1.082,-6.14 -1.086,-12.57 1.742,-18.19 10.34,-20.54 24.399,-36.84 48.692,-41.23 z M 601.148,1647.54 c 56.532,32.58 71.411,83.45 71.579,141.97 -22.028,-21.62 -65.305,-106.56 -71.579,-141.97 z m 630.082,2087.33 c 8.58,23.57 2,40.47 -17.5,53 -3.9,2.5 -7.64,5.26 -11.36,8.03 -23.5,17.48 -39.83,39.8 -50.5,67.41 -6.04,15.62 -5.34,33.12 -14.83,50.19 -0.83,-69.47 37.98,-161.67 94.19,-178.63 z M 632.324,2047.69 c -23.004,-25.58 -26.863,-60.41 -8.496,-93.15 17.668,-31.49 34.922,-63.1 50.137,-95.84 1.23,-2.64 2.988,-5.57 7.465,-4.53 4.328,4.03 2.527,9.7 2.226,14.59 -1.058,17.13 -5.851,33.21 -14.808,48.03 -17.434,28.84 -30.004,58.98 -25.496,93.91 1.753,13.61 -7.036,24.12 -11.028,36.99 z m 828.786,1886.87 c -5.36,3.41 -9.95,1.44 -14.26,1.02 -31.16,-3.06 -54.03,9.96 -69.24,36.42 -9.8,17.05 -19.06,34.61 -23.37,54.05 -1.36,6.12 -3.36,10.57 -10.12,9.8 -6.7,-0.76 -8.05,-6.37 -8.53,-11.97 -0.51,-5.93 2.23,-10.65 6.9,-13.85 12,-8.23 13.23,-19.6 11.02,-32.72 -1.14,-6.75 -0.64,-13.81 -0.56,-20.72 0.09,-7.82 0.64,-15.91 7.24,-21.21 18.43,-14.78 39.26,-25.21 63.13,-25.06 16.49,0.11 31.21,6.61 37.79,24.24 z M 692.211,2100.78 c 21.465,8.49 29.109,15.85 35.137,31.55 16.343,42.56 8.175,84.89 -1.11,127.21 -1.254,5.73 -5.734,9.22 -9.758,12.59 -9.554,8 -17.558,5.17 -19.339,-7.26 -2.434,-17 -1.45,-33.87 5.57,-49.97 6.91,-15.84 8.152,-32.54 8.602,-49.67 0.589,-22.53 -11.09,-41.14 -19.102,-64.45 z M 662.254,3775.2 c 3.48,-9.33 8.863,-15.35 14.285,-21.75 18.149,-21.4 42.231,-35.77 63.008,-54.03 10.203,-8.97 22.855,-10.01 29.5,-2.9 8.09,8.64 4.133,17.84 0.078,27.62 -9.871,23.81 -30.844,33.97 -52.09,42.86 -16.523,6.92 -34.039,13.51 -54.781,8.2 z m 684.236,-415.6 c 21.45,23.76 46.19,29.53 74.42,20.12 2.15,-0.71 4.59,-0.7 6.9,-0.78 24.31,-0.84 45.16,13.25 54.24,35.95 2.16,5.4 3.39,10.75 0.64,15.58 -6.95,12.2 -14.81,23.86 -30.64,25.45 -15.56,1.57 -26.92,-4.67 -33.85,-18.82 -2.36,-4.84 -6.29,-9.35 -7.14,-14.4 -2.15,-12.79 -11.46,-17.76 -21.66,-21.86 -4.95,-1.99 -10.58,-2.25 -15.67,-3.99 -16.04,-5.47 -27.24,-19.66 -27.24,-37.25 z M 517.883,2216.26 c -16.176,-1.69 -21.391,-13.21 -24.192,-25.22 -4.187,-17.94 -3.132,-36.28 10.696,-49.93 19.668,-19.41 40.426,-37.8 61.59,-55.59 6.183,-5.19 14.347,-9.32 23.199,-9.93 18.578,-1.28 37.14,-1.23 55.527,2.02 4.168,0.74 9.387,1.85 7.887,9.44 -22.317,-0.23 -38.805,12.31 -54.16,26.74 -6.801,6.4 -13.215,14.71 -22.703,15 -19.551,0.59 -25.325,13.63 -31.555,28.67 -8.149,19.67 -13.043,40.99 -26.289,58.8 z m 98.039,-15.2 c -1.113,-13.7 -0.945,-26.23 -3.438,-38.21 -2.504,-12.07 -11.921,-20.58 -21.746,-28.5 13.856,-13.38 24.754,-27.59 42.348,-34.03 16.48,-6.03 34.84,-0.88 44.43,13.45 11.457,17.12 11.371,53.44 -0.168,70.6 -11.805,17.55 -32.36,23.35 -61.426,16.69 z m 329.387,-608.79 c 1.652,0.49 3.308,0.97 4.961,1.45 -0.082,48.7 -12.575,96.5 -10.051,145.67 -39.309,19.45 -71.614,47.93 -109.375,68.1 14.535,-33.19 35.027,-62.11 54.086,-91.86 14.953,-23.34 31.593,-45.38 39.027,-73.12 4.664,-17.4 14.07,-33.53 21.352,-50.24 z m -267.313,932.32 c -17.594,-10.63 -29.273,-25.91 -35.738,-44.3 -16.863,-47.95 -11.793,-95.99 3.242,-143.18 4.004,-12.57 10.652,-25.77 27.145,-30.38 10.777,10.08 11.668,23.2 12.218,36.19 0.789,18.67 -1.32,37.39 -5.793,55.26 -10.5,41.98 -13.543,83.57 -1.074,126.41 z m 671.674,1524.9 c 0.93,31.91 -5.76,61.5 10.95,88.54 1.56,2.52 2.3,5.73 2.75,8.72 1.93,12.98 -3.69,20.95 -16.36,23.6 -8.81,1.85 -17.15,-3.38 -19.95,-14.67 -2.26,-9.14 -4.84,-17.62 -10.76,-25.18 -26.53,-33.92 -30.26,-72.11 -17.29,-111.63 7.07,-21.52 20,-40.5 38.91,-57.59 2.11,11.81 7.5,19.03 7.23,27.84 -0.04,1.52 -0.16,3.22 -0.86,4.5 -3.55,6.52 -11.33,7.66 -16.27,12.54 -7.39,7.32 -9.04,15.88 -6.2,25.56 4.1,13.99 14.19,19.17 27.85,17.77 z m 281,-338.62 c -1.29,4.93 -1.21,6.83 -2.12,7.76 -30.65,31.07 -64.9,57.04 -105.75,73.41 -13.81,5.53 -28.42,7.61 -43.2,7.26 -11.87,-0.27 -24.69,-2.28 -29.01,-14.97 -4.42,-13.04 5.73,-21.56 14.9,-28.7 48.17,-37.54 103.6,-48.21 165.18,-44.76 z M 836.625,3407.91 c 26.328,-0.33 40.648,10.05 48.293,34.33 6.332,20.11 3.27,35.9 -10.063,45.55 -9.324,6.75 -19.214,12.93 -29.5,18.09 -27.21,13.64 -49.234,9.29 -65.753,-11.57 -5.145,-6.5 -9.653,-14.05 -5.891,-21.21 10.602,-20.2 21.184,-40.86 37.996,-56.71 6.473,-6.1 15.852,-9.82 24.918,-8.48 z m 87.203,-287.22 c -11.598,-25.02 -14.109,-50.4 -13.305,-76.83 0.965,-31.75 0.809,-63.58 -1.664,-95.33 -0.257,-3.31 -2.175,-7.81 4.446,-9.79 36.187,42.33 69.332,89.51 134.985,102.74 -29.01,5.96 -51.755,13.04 -73.876,22.11 -16.422,6.73 -28.383,17.48 -36.535,33.7 -3.899,7.75 -5.301,17.89 -14.051,23.4 z m 951.532,762.14 c 17.71,-8.15 34.23,-4.61 50.39,1.16 16.9,6.03 27.54,17.41 25.9,36.61 -1,11.78 3.26,20.83 11.12,29.24 12.63,13.5 11.35,25.02 -3.13,35.96 -6.42,4.85 -13.97,7.37 -21.64,7.38 -23.2,0.04 -44.28,-6.67 -61.16,-23.28 -20.99,-20.65 -33.58,-45.7 -37.14,-75.03 -0.25,-2.03 2.13,-3.86 7.46,-2.78 -1.94,12.43 2.24,23.63 15.64,27.8 7.24,2.25 13.66,-2.6 18.29,-7.82 9.84,-11.09 -1.57,-19.43 -5.73,-29.24 z M 1449.02,2602.99 c -0.5,3.31 -0.2,5.28 -1.03,6.21 -38.08,42.59 -78.38,82.97 -127.65,112.51 -22.86,13.7 -47.95,24.68 -76.51,18.49 9.48,-46.96 141.42,-135.29 205.19,-137.21 z m 62.56,-158.7 c 11.15,44.32 17.27,54.57 44.59,74.65 35.66,26.19 48.85,75.96 30.64,115.64 -4.22,9.2 -11.14,14.13 -21.54,14.85 -24.77,1.71 -42.47,-10.92 -52.39,-31.11 -7.89,-16.06 -17.53,-26.1 -36.22,-27.92 11.32,-22.35 11.73,-42.79 -1.82,-62.67 -3.01,-4.41 -5.24,-9.52 -6.99,-14.6 -10.88,-31.62 10.6,-65.3 43.73,-68.84 z M 894.668,3770.53 c -10.188,25.84 -26.066,42.29 -52.426,41.15 -23.875,-1.03 -38.668,7.99 -51.238,27.88 -34.5,54.61 -106.973,29.68 -128.75,-11.3 -14.606,-27.49 -9.223,-36.53 21.766,-40.43 6.902,-0.87 13.941,-1.69 20.535,-3.75 34.324,-10.74 63.82,-27.45 76.406,-64.18 1.437,-4.2 0.035,-9.51 6.043,-13.17 8.207,3.86 17.461,8.24 27.703,7.19 23.297,-2.38 39.609,8.71 53.309,26.09 8.086,10.26 17.175,19.74 26.652,30.52 z m 729.302,-1353.7 c 28.97,-1.04 51.19,-10.34 74.55,-5.72 15.78,3.12 31.28,7.09 47.47,8.57 20.79,1.89 44.97,22.26 43.53,38.43 -1.47,16.47 4.77,28.42 13.48,40.23 6.1,8.28 9.74,17.63 13.08,26.99 7.7,21.55 2.3,37.02 -16.74,49.96 -5.69,3.87 -11.89,7.04 -18.03,10.19 -37.26,19.15 -77.91,4.82 -89.66,-34.49 -8.55,-28.64 -22.86,-51.76 -47.29,-69.76 8.66,-24.13 1.66,-44.07 -20.39,-64.4 z m -447.75,1340.55 c -30.64,45.57 -43.19,92.71 -50.92,141.93 -4.9,31.21 -9.37,63.36 -23.55,91.76 -19.18,38.43 -31.89,76.86 -21.63,120.2 1.58,6.65 1.07,13.8 -3.81,19.87 -8.55,10.66 -30.76,18.99 -42.03,14.1 -14.04,-6.1 -20.26,-17.56 -21.23,-33.09 -1.33,-21.44 3.78,-41.73 10.37,-61.44 10.91,-32.68 13.85,-64.84 10.98,-99.81 -6.24,-76.08 30.73,-133.38 90.44,-177.24 13.69,-10.04 29.66,-15.64 51.38,-16.28 z M 573.742,1607.14 c -27.781,-10.68 -55.5,-17.06 -84.004,-20.34 -51.855,-5.96 -101.961,2.73 -149.808,21.85 -47.309,18.91 -96.973,23.4 -145.774,30.43 -10.703,-9.82 -13.679,-21.39 -14.242,-34.17 -0.992,-22.49 -0.684,-45 1.902,-67.29 3.485,-30.06 17.508,-52.01 49.008,-60.22 11.324,-2.95 22.578,-5.16 34.121,-5.98 48.832,-3.45 97.2,1.16 145.633,7.31 80.5,10.21 132.11,56.14 163.164,128.41 z m -26.347,1598.31 c 3.382,-4.13 7.468,-7.87 10.039,-12.45 23.421,-41.78 60.586,-64.67 105.097,-78.23 18.059,-5.5 36.828,-4.65 54.996,-8.26 36.746,-7.29 72.746,0.03 107.844,8.21 23.141,5.4 45.57,14.29 69.496,17.06 5.387,0.63 10.363,1.91 13.985,9.98 -36.801,17.05 -75.672,30.61 -105.821,60 -4.976,-9.87 -11.183,-13.99 -19.543,-14.67 -16.988,-1.38 -33.636,-1.81 -50.457,3.68 -29.09,9.49 -55.765,22.79 -78.765,43.1 -17.082,15.08 -36.289,27.26 -58.516,31.68 -28.559,5.68 -57.941,7.34 -84.496,21.92 -2.816,-5.13 -4.676,-7.61 -5.625,-10.39 -8.242,-24.13 0.519,-44.36 16.137,-61.89 12.078,-13.56 22.39,-28.03 26.554,-45.54 7.051,-29.67 24.801,-50.99 48.996,-67.91 22.395,-15.67 47.766,-25.07 73.2,-34.27 41.652,-15.07 83.711,-27.36 128.933,-24.59 21.094,1.29 41.492,4.7 61.082,12.32 28.61,11.12 48.25,39.32 45.465,65.07 -7.73,1.66 -15.043,-1.18 -22.25,-3.2 -17.808,-4.98 -35.375,-11.32 -53.16,-15.79 -59.57,-15 -119.613,-14.01 -178.848,2.5 -52.39,14.59 -89.164,46.88 -104.343,101.67 z M 1841.7,2911.81 c 4.26,7.03 7.58,15.09 13.11,21.11 11.8,12.85 10.54,26.34 4.92,40.91 -5.16,13.39 -14.42,23.73 -24.5,33.39 -12.84,12.31 -26.02,24.27 -39.04,36.39 -13.37,12.43 -22.13,27.15 -26.03,45.39 -5.17,24.19 -12.6,47.79 -25.18,69.44 -8.98,15.46 -21.32,25.27 -39.11,30.22 -16,4.46 -32,5.03 -48.11,5.75 -50.28,2.23 -94.51,-10.56 -128.84,-50.4 -14.13,-16.41 -31.8,-29.52 -51.51,-39.14 -9.46,-4.61 -19.42,-8.2 -31.43,-13.19 14.59,-9.67 29.1,-7.53 42.33,-9.35 44.73,-6.17 80.21,-27.17 106.01,-63.9 11.53,-16.41 21.81,-33.75 31.85,-51.13 16.27,-28.17 21.79,-57.65 8.51,-88.84 -1.18,-2.77 -1.42,-6.06 1.82,-10.36 31.61,14.44 64.41,26.73 99.14,34.04 34.95,7.36 69.75,12.79 106.06,9.67 z m -328.43,-483.47 c -14.78,2.27 -27.54,8.57 -38.92,18.77 -10.16,9.1 -14.89,7.62 -21.55,-4.16 -1.51,-2.68 -2.78,-5.57 -3.71,-8.5 -7.22,-22.82 -14.52,-45.62 -21.45,-68.54 -10.76,-35.65 -26.89,-67.43 -60.01,-87.9 -5.79,-3.58 -10.11,-9.48 -15.39,-13.98 -5.69,-4.85 -8.72,-10.8 -8.75,-18.21 -0.06,-16.11 -0.02,-32.21 -0.02,-47.05 11.08,-5.39 20.51,-7.65 26.62,-15.19 3.88,-4.79 8.89,-9.68 10.29,-15.3 9.02,-36.08 35.59,-56.88 64.53,-75.59 24.85,-16.07 48.67,-32.93 58.78,-61.96 37.64,-6.83 66.93,-25.87 91.8,-52.41 10.01,-10.68 19.53,-21.82 29.53,-32.5 11.21,-11.98 24.24,-21.79 39.46,-27.82 44.05,-17.47 88.9,-17.99 134.36,-5.5 29.72,8.17 59.03,19.58 90.89,14.78 38.97,-5.86 64.23,14.93 80.95,45.87 18.23,33.72 27.29,70.59 22.55,109.63 -0.51,4.21 0.85,9.74 -7.01,11.37 -15.39,-13.79 -30.87,-28.71 -47.44,-42.31 -43.12,-35.39 -90.98,-50.89 -146.81,-35.01 -30.43,8.66 -61.06,18.13 -92.91,19.28 -46.67,1.67 -92.6,7.41 -137.17,21.39 -45.73,14.35 -86.27,38.19 -117.57,74.72 -24.74,28.89 -33.05,62.39 -17.49,99.42 8.73,20.77 14.13,41.96 12.99,65.22 -1.29,26.26 10.93,47.86 31.11,64.52 7.74,6.39 16.23,11.91 24.62,17.47 17.17,11.39 26.89,25.61 17.72,49.49 z m -694.676,945.71 c 2.367,-14.93 -5.574,-24.69 -13.106,-34.51 -19.558,-25.5 -22.957,-53.19 -11.824,-83.01 1.352,-3.62 3.887,-7.23 3.883,-10.85 -0.012,-18.71 12.488,-29.13 25.355,-39.15 17.114,-13.33 34.664,-26.11 55.77,-32.64 34.5,-10.68 59.719,-30.55 71.488,-66.4 5.16,-15.73 17.742,-26.47 33.367,-33.69 33.443,-15.43 68.793,-22.56 105.093,-25.88 43.77,-4.01 84.1,8.79 123.04,26.86 12.55,5.83 25.99,12.29 32.74,25.01 11.54,21.73 30.01,36.29 48.3,51.33 2.97,2.44 5.55,5.41 8.1,8.31 15.5,17.65 16.9,36.86 4.09,55.05 -14.34,20.37 -26.7,23.39 -51.71,12.79 -27.05,-11.45 -54.44,-16.21 -83.46,-6.79 -17.61,5.72 -36.11,8.66 -53.79,14.17 -27.96,8.71 -57.62,14.46 -81.27,32.75 -24.92,19.29 -55.312,30.42 -77.613,53.35 -1.055,1.08 -2.438,1.92 -3.801,2.63 -15.894,8.22 -25.453,21.95 -32.848,37.59 -3.242,6.86 -6.57,13.68 -9.98,20.77 -29.684,-4.62 -59.328,-0.69 -91.824,-7.69 z M 656.703,2042.96 c -1.789,-13.81 3.516,-23.39 13.551,-30.47 32.539,-22.98 54.844,-53.35 68.758,-90.68 8.781,-23.56 24.851,-42.35 44.074,-58.57 37.801,-31.9 78.523,-59.72 119.238,-87.68 36.906,-25.34 76.496,-44.05 120.416,-51.78 73.7,-12.98 143.17,2.53 208.36,37.22 49.22,26.18 93.15,60.16 134.51,97.54 32.01,28.94 62.85,59.26 98.36,84.19 43.86,30.79 46.04,82.83 5.61,118.01 -11.13,9.69 -24.24,16.37 -36.12,24.85 -29.44,21 -60.89,40.33 -68.78,80.16 -1.69,8.55 -8.71,13.77 -16.38,17.11 -1.94,-2.11 -3.6,-3.06 -3.77,-4.23 -6.5,-45.93 -15.77,-91.32 -27.6,-136.15 -7.51,-28.44 -18.05,-55.75 -34.51,-80.46 -32.78,-49.18 -82.83,-73.44 -136.34,-90.03 -54.57,-16.92 -110.77,-28.41 -167.935,-33.23 -30.211,-2.55 -60.692,-2.77 -88.11,13.04 -25.328,14.62 -50.105,30.23 -74.781,45.94 -21.07,13.41 -38.313,30.84 -53.133,51.11 -16.812,22.98 -32.676,46.8 -53.226,66.87 -14.465,14.12 -30.215,25.52 -52.192,27.24 z m 123.418,1333.85 c -18.988,7.21 -29.906,20.79 -36.305,41.03 -6.828,21.61 -10.132,43.52 -13.328,65.59 -2.765,19.1 -8.644,36.69 -19.519,52.97 -9.614,-6.58 -9.348,-15.13 -9.871,-23.6 -1.68,-27.16 7.41,-53.65 4.757,-80.92 -0.609,-6.25 4.329,-11.17 7.567,-16.5 9.789,-16.14 25.012,-25.71 43.887,-35.25 -31.145,-2.06 -62.43,24.4 -63.504,54.16 -0.891,24.82 -5.258,49.29 -5.254,74.09 0,10.04 -0.664,20.24 3.449,29.78 3.156,7.32 7.414,14.29 16.316,14.57 7.704,0.24 12.262,-5.8 16.219,-11.55 1.715,-2.5 2.344,-5.72 3.586,-8.56 10.418,-23.83 13.031,-49.37 14.68,-74.77 1.183,-18.25 7.863,-34.62 13.465,-51.34 3.218,-9.61 10.789,-16.49 21.66,-19.17 12.144,-2.99 24.019,-4.79 36.699,-3.31 20.746,2.43 41.637,4.29 62.504,4.81 12.855,0.32 24.512,3.82 35.84,8.67 24.324,10.41 38.168,36.38 34.222,64.9 -20.445,-14.6 -41.41,-26.2 -58.406,-44.93 -34.379,-37.88 -86.582,-28.29 -106.422,18.1 -1.906,4.46 -4.683,7.78 -7.398,11.47 -17.926,24.45 -16.828,41.7 3.758,63.8 14.32,15.37 14.789,19.75 6.257,39.03 -7.335,16.59 -19.339,29.73 -30.894,43.16 -14.363,16.7 -18.254,35.19 -11.648,56.14 3.382,10.74 6.324,21.61 9.265,31.72 -26.043,14.73 -49.426,30.94 -71.23,49.33 -12.383,10.44 -24.59,21.3 -30.918,36.93 -3.938,9.73 -11.785,11.17 -20.996,10.13 -27.008,-3.06 -53.539,-8.25 -78.399,-19.58 -21.09,-9.6 -38.406,-24.58 -46.699,-46.18 -5.711,-14.87 -14.07,-25.01 -27.543,-32.33 -42.945,-23.3 -72.629,-59.26 -95.109,-101.65 -9.11,-17.17 -14.133,-35.46 -15.036,-55.4 -1.804,-39.79 6.719,-76.79 25.332,-111.69 37.079,-69.51 96.29,-109.67 172.043,-124.88 40.168,-8.06 77.727,-18.5 108.547,-47.48 18.875,-17.76 43,-27.52 67.739,-34.22 18.336,-4.97 37.332,-6.29 56.265,-0.21 -30.051,56.62 -35.851,112.44 -15.578,173.14 z m 158.027,20.81 c 2.047,-2.54 2.825,-4.51 3.911,-4.7 27.562,-4.7 37.882,-23.42 40.496,-48.86 0.89,-8.69 4.761,-16.15 11.308,-22.3 24.367,-22.9 49.627,-44.3 81.747,-55.98 36.38,-13.23 73.24,-25.25 111.23,-32.18 41.69,-7.59 77.13,9.56 109.28,34.41 4.16,3.21 7.62,7.95 10.06,12.68 21.67,41.97 34.29,84.78 10.76,130.58 -10.86,21.15 -14.13,43.96 -14.1,67.45 0.03,22.49 -0.21,44.99 -0.06,67.48 0.38,57.96 -21.69,104.34 -67.76,140.56 -33.25,26.14 -72.07,41.52 -108.87,60.45 -29.07,14.96 -51.76,36.27 -73.18,59.06 -10.5,11.18 -20.98,17.53 -35.12,19.47 -32.155,4.41 -59.592,-3.72 -80.803,-29.78 -15.633,-19.21 -32.188,-37.67 -48.27,-56.51 -18.515,-21.69 -37.414,-38.73 -70.562,-35.51 -23.938,2.33 -44.32,-12.86 -55.008,-35.7 -10.957,-23.42 -15.492,-47.04 4.992,-68.98 18.692,-20.02 33.028,-42.59 33.77,-72.08 10.308,1.67 18.801,-1.43 27.758,2.11 -1.071,13.05 -12.622,22.7 -11.024,36.96 2.426,21.63 18.274,31.46 37.602,21.89 22.836,-11.31 37.742,-30.15 36.23,-54.98 -1.828,-30.16 8.242,-58.24 8.399,-88.97 29.48,17.12 58.875,32.36 48.472,73.82 -0.363,1.45 -0.047,3.09 0.086,4.63 1.219,14.03 7.66,24.38 15.031,22.62 11.84,-2.83 10.446,-13.4 11.493,-22.51 1.855,-16.12 -7.578,-30.06 -8.981,-44.93 -2.816,-29.82 -8.496,-57.77 -28.887,-80.2 z m 366.922,505.41 c -6.28,-14.92 -15.18,-28.25 -20.56,-43.33 -8.05,-22.59 -19.38,-45.7 -12.84,-69.69 6.47,-23.76 7.08,-47.25 6.78,-71.17 -0.17,-12.93 6.11,-22.34 15.46,-29.77 6.59,-5.23 14.08,-9.54 21.64,-13.3 50,-24.84 102.43,-42.84 156.69,-55.84 38.58,-9.25 75.35,-22.39 105.7,-49.7 24.76,-22.28 54.53,-35 87.31,-39.6 16.47,-2.31 32.61,1.53 44.52,14.23 19.92,21.25 25.2,67.27 13.16,93.42 -11.11,24.11 -32.16,36.33 -53.03,49.63 -10.31,6.59 -20.17,9.54 -32.6,8.57 -50.35,-3.96 -98.62,4.6 -144.29,26.73 -17.55,8.51 -33.73,18.95 -45.88,34.41 -16.06,20.41 -10.81,39.75 12.71,50.68 9.59,4.45 19.6,4.61 29.57,3.85 25.14,-1.92 48.01,-11.23 69.9,-23.13 31.51,-17.11 59.32,-39.12 84.43,-64.63 7.98,-8.1 16.86,-13.87 28.82,-9.23 16.53,6.39 33.26,12.2 47.51,23.47 34.55,27.32 61.35,60.68 81.26,99.96 21.8,43 29.47,89.34 33.39,136.54 2.32,27.98 -0.03,56.01 -9.45,82.54 -31.92,89.8 -137.2,183.19 -262.72,161.91 -18.69,-3.17 -37.49,-8.24 -47.96,-24.79 -8.79,-13.9 -18.99,-26.17 -29.66,-38.37 -9.21,-10.54 -15.82,-22.4 -20.78,-35.8 -6.56,-17.71 -5.3,-31.05 7.78,-46.46 27.27,-32.13 22.7,-52.49 7.32,-92.55 -0.93,-2.43 -3.89,-1.91 -7.57,-1.33 -8.16,9.38 -2.66,20.75 0.27,29.9 4.73,14.75 1.91,27.46 -3.96,40.38 -14.4,31.71 -55.54,47.1 -86.21,31.76 -10.86,-5.43 -17.82,-14.94 -18.85,-27.55 -1.5,-18.44 -3.24,-36.88 12.14,-51.65 4.34,-4.18 6.6,-10.45 10.38,-15.32 7.58,-9.73 14.38,-20.07 24.68,-27.57 15.1,-10.98 32.03,-10.49 49.1,-8.91 12.31,1.14 20.08,8.79 22.7,22.22 7.24,-8.23 11.5,-6.34 17.08,-1.41 15.12,13.37 31.87,24.53 50.29,32.97 6.55,3.01 13.31,4.62 19.16,-1.55 5.23,-5.51 3.1,-11.2 0.43,-17.15 -8.44,-18.8 -19.77,-34.42 -39.19,-43.89 -11.99,-5.85 -24.61,-9.29 -37.07,-13.14 -9.34,-2.9 -16.9,-6.4 -22.35,-14.85 -5.58,-8.64 -13.41,-15.08 -23.69,-17.7 -37.52,-9.59 -78.66,6.47 -99.35,39.12 -2.92,4.61 -5.1,9.29 -10.16,12.15 -21.55,12.23 -34.65,32.65 -49.55,51.38 -24.78,31.15 -23.38,104.51 11.98,135.24 9.36,8.15 16.87,16.64 19.87,29.89 3.04,13.4 16.49,19.94 28.78,17.8 14.63,-2.55 24.08,-12.07 24.9,-26.09 0.59,-10.01 0.53,-19.77 -5.02,-29.22 -7.64,-13.03 -6.51,-27.2 -4.24,-42.25 28.04,12.76 54.53,18.53 83.19,12.56 3.02,25.8 11.37,49.13 30.13,64.66 26.5,21.93 35.79,51.6 43.55,82.2 5.36,21.11 -3.29,37.33 -23.98,43.36 -24.78,7.22 -43.02,23.52 -56.84,45.08 -5.83,9.1 -11.7,18.24 -18.26,26.82 -11.65,15.24 -26.88,26.18 -45.76,29.54 -33.97,6.05 -68.67,5.16 -101.62,-3.42 -58.59,-15.25 -105.09,-49.56 -142.45,-97.62 -42.84,-55.11 -50.03,-118.33 -30.89,-180.41 20.52,-66.57 38.95,-133.21 52.66,-201.37 7.8,-38.82 22.86,-73.97 56.01,-98.4 17.28,-12.73 34.41,-25.3 40.43,-48.05 4.55,19.53 9.34,38 11.33,57.35 3.47,33.75 18.41,62.84 43.77,85.89 z m 223.09,-1516.71 c -11.82,-15.89 -24.9,-25.34 -38.74,-33.79 -28.29,-17.27 -41.5,-42.91 -41.68,-75.54 -0.07,-14.07 -2.45,-27.4 -6.49,-41 -11.54,-38.81 -4.06,-73.99 26.32,-101.82 22.23,-20.38 46.98,-37.7 74.85,-49.89 50.24,-21.97 103.65,-30.86 157.62,-36.26 24.9,-2.49 48.93,-7.34 72.22,-16.02 48.93,-18.24 95.84,-15.03 139.3,14.63 25.53,17.42 46.82,40.05 67.74,62.68 10.51,11.36 18.46,25.15 22.46,40.14 8.78,32.87 16.71,66.22 18.93,100.1 2.46,37.32 11.37,71.59 33.23,102.14 26.78,37.42 35.54,79.93 35.94,125.03 0.35,39.08 -6.94,77.4 -15.94,114.74 -17.06,70.72 -42.88,138.32 -77.33,203.08 -33.34,62.68 -85.04,93.32 -152.38,103.27 -55.2,8.16 -107.58,-5.05 -159.57,-21.25 -50.09,-15.61 -85.88,-50.33 -118.85,-88.77 -10.38,-12.09 -13.49,-25.87 -6.82,-40.93 2.81,-6.34 5.96,-12.56 9.33,-18.62 11.23,-20.19 14.32,-40.19 -3.18,-60.71 20.27,-4.08 33.32,-14.36 36.63,-33.17 3.76,-21.36 7.38,-43.25 1.97,-64.63 -6.5,-25.72 -15.9,-50 -41.44,-64.31 -12.22,-6.86 -21.47,-18.08 -27.44,-30.92 -6.82,-14.64 -14.76,-29.84 -3.96,-45.99 8.67,-12.97 9.69,-27.26 10,-42.23 0.52,-25.74 17.23,-45.27 42.15,-51.35 11.49,-2.81 23.13,-1.9 34.73,-2.08 10.86,-0.17 22.24,1.01 32.09,-3.88 21.09,-10.46 43.51,-15.44 66.42,-19.54 24.52,-4.39 44.44,4.08 60.46,21.47 14.11,15.32 15.01,38.98 3.47,50.72 -20.42,20.77 -44.74,29.17 -73.87,23.63 -45.23,-8.59 -88.97,1.01 -132.51,12.01 -1.48,0.37 -2.88,1.17 -4.26,1.87 -23,11.74 -30.11,40.25 -14.77,61.03 5.5,7.46 12.49,13.63 19.96,19.33 15.76,12.03 32.09,15.86 48.98,3.37 10.01,-7.4 17.14,-3.8 24.24,3.6 11.44,11.94 19.59,25.48 23.76,41.84 4.2,16.5 10.09,32.64 24.64,43.56 48.08,36.08 96.56,13.82 126.19,-22.68 4.03,-4.96 4.84,-11.14 5.52,-17.44 2.19,-20.38 -4.82,-37.88 -15.34,-54.73 -5.68,-9.1 -15.33,-17.19 -15.08,-28.34 0.61,-27.33 -13.37,-44.32 -37.53,-56.62 8.94,-5.65 16.98,-10.18 24.4,-15.57 7.54,-5.48 14.19,-11.85 16.22,-21.78 5.18,-25.26 -7.52,-54.63 -29.47,-68.42 -30.68,-19.26 -63.18,-14.4 -94.15,-3.85 -27.44,9.34 -54.08,16.77 -83.52,15.91 -24.6,-0.72 -44.11,11.04 -57.25,33.23 -5.98,10.08 -3.79,21.04 -8.2,34.75 z M 580.871,2210.79 c -1.289,2.24 -1.711,3.97 -2.805,4.72 -5.711,3.93 -11.351,8.06 -17.449,11.31 -37.785,20.18 -55.523,52.48 -57.031,94.38 -0.645,17.95 -4.145,35.32 -9.168,52.4 -7.797,26.51 -22.531,46.34 -49.871,56.76 -14.715,5.61 -29.824,9 -44.777,11.2 -43.692,6.43 -85.723,-0.17 -119.415,-30.78 -33.035,-30.01 -56.203,-67.55 -71.558,-109.66 -17.141,-47 -40.481,-89.97 -78.445,-123.91 -28.219,-25.23 -55.7153,-51.33 -78.352,-81.89 -18.207,-24.58 -32.4922,-50.22 -24.6289,-83.21 2.5859,-10.83 -0.0078,-22.72 -2.2891,-34.37 -5.4882,-28.02 -10.0976,-56.38 -7.4961,-85.27 4.9414,-54.88 27.6758,-102.56 59.0743,-146.74 41.7188,-58.7 96.6128,-94.13 170.0668,-99.52 27.621,-2.03 55.199,-8.21 81.156,-18.61 21.59,-8.66 43.457,-16.32 66.058,-21.32 42.918,-9.5 86.27,-9.55 129.305,-1.09 17.367,3.41 34.141,9.95 49.586,19.15 8.434,5.02 13.973,11.28 13.957,22.18 -0.035,25.65 10.313,48.27 23.25,69.58 16.035,26.41 30.996,53.56 50.137,77.98 13.277,16.95 14.394,34.3 5.383,54.12 -15.043,33.08 -31.196,65.4 -49.454,96.9 -18.789,32.41 -24.421,66.66 -1.542,100.55 5.062,7.5 11.16,12.33 20.894,12.31 31.445,-0.05 59.344,-8.74 82.031,-31.55 17.504,-17.6 32.75,-37 46.985,-57.28 17.879,-25.47 38.316,-48.45 64.847,-65.42 20.153,-12.9 40.215,-25.94 60.114,-39.23 14.554,-9.72 30.511,-15.19 47.843,-15.58 15.469,-0.34 30.989,0.29 46.446,1.17 35.727,2.03 69.987,11.96 104.627,19.89 39.29,9 77.33,21.22 113,40.37 40.15,21.56 70.21,52.16 87.84,94.64 18.49,44.57 29.29,91.41 37.51,138.49 10.05,57.64 7.44,115.52 -8.26,172.49 -9.36,33.94 -23.33,65.2 -44.98,93.2 -29.88,38.63 -70.62,62.04 -113.51,82.35 -30.54,14.47 -58.62,31.69 -77.48,60.7 -9.18,14.13 -22.25,23.25 -36.6,31.09 -35.76,19.52 -75.452,27.34 -114.366,36.62 -40.375,9.62 -81.641,4.28 -122.457,0.64 -17.965,-1.6 -33.871,-10.03 -49.414,-18.8 -6.43,-3.63 -11.688,-8.24 -11.567,-16.06 0.274,-17.77 -10.812,-26.77 -25.343,-32.03 -13.52,-4.9 -20.871,-14.07 -26.727,-26.78 -15.555,-33.74 -16.875,-68.74 -10.926,-104.37 4.086,-24.49 7.27,-49.01 7.895,-73.79 0.297,-11.65 -1.238,-23.38 -5.485,-34.26 -6.757,-17.3 -19.117,-20.22 -32.183,-7.46 -9.426,9.2 -16.574,20.14 -21.492,32.69 -12.489,31.88 -11.051,65.35 -11.36,98.46 -0.136,14.48 1.141,29.21 6.645,43.4 11.16,28.79 31.793,49.02 56.39,66.03 20.676,14.29 32.868,35.73 49.282,53.16 -10.813,15.81 -26.606,23.8 -32.071,39.92 -4.015,11.85 -13.699,18.42 -23.093,25.23 -10.157,7.36 -22.063,11.3 -33.758,14.91 -23.547,7.26 -44.93,20.74 -69.934,23.75 -43.726,5.28 -86.851,1.09 -128.551,-11.81 -34.527,-10.67 -64.531,-29.43 -84.085,-61.69 -26.336,-43.44 -28.411,-90.69 -21.918,-139.13 1.097,-8.22 5.117,-16.26 8.859,-23.86 4.629,-9.41 11.137,-15.65 23.5,-14.85 21.836,1.41 42.996,-3.92 63.977,-9.55 31.195,-8.36 53.074,-26.98 65.625,-57.1 9.949,-23.89 13.335,-49.15 17.156,-74.28 4.039,-26.56 14.746,-48.33 37.308,-64.07 24.059,-16.79 46.594,-32.73 79.692,-29.11 28.402,3.1 50.32,-15.67 58.328,-40.73 2.473,-7.74 2.851,-16.15 4.289,-24.86 8.301,7.21 7.371,14.67 5.324,23.74 -4.465,19.76 -13.437,37.76 -19.844,56.72 -4.757,14.07 -7.332,28.56 0.063,42.93 9.086,17.66 21.863,21.22 37.769,9.8 10.418,-7.48 18.692,-17.24 19.469,-30.32 2.211,-37.12 5.262,-74.39 0.508,-111.43 -3.855,-30.05 -19.66,-51.66 -50.34,-59.76 -6.066,-1.6 -12.019,-3.27 -17.16,-6.85 -24.582,-17.13 -52.523,-15.51 -80.41,-14.92 -19.824,0.43 -35.434,9.41 -49.469,22.39 -14.121,13.06 -28.57,25.77 -42.613,38.91 -22.789,21.33 -27.606,46.99 -17.492,75.96 4.722,13.52 19.679,28.36 29.007,27.26 14.688,-1.73 18.641,-14.6 23.84,-25.7 1.297,-2.77 1.153,-6.29 2.688,-8.86 6.058,-10.13 8.226,-22.8 19.722,-31.95 -1.32,21.21 8.586,35.89 19.723,49.36 z m 633.789,1512.6 c -1.76,9.09 -11.08,9.68 -16.63,14.47 -15.9,13.75 -16.16,13.44 -40.15,9.15 19.23,-10.37 35.78,-22.43 57.19,-23.14 -0.74,-4.64 2.31,-6.83 5.66,-8.95 29.53,-18.69 54.49,-42.19 74.72,-70.72 2.01,-2.86 3.53,-7.26 10.41,-4.64 1.88,7.09 3.46,15.09 1.95,25.6 -39.77,15.47 -49.83,47.49 -42.59,89.2 -6.29,-6.53 -17.4,-4.6 -18.91,-13.05 -3.52,-19.68 -17.55,-18.3 -31.65,-17.92 z m -87.63,242.84 c -4.81,-14.82 1.75,-27.79 7.15,-40.94 -0.15,13.93 2.66,28.39 -7.65,40.54 2.14,20.47 -3.11,39.8 -9.52,58.84 -6.27,18.62 -7.94,39.15 -21.89,59.76 -2.77,-23.18 -0.49,-40.3 8.15,-56.63 10.34,-19.54 11.16,-42.83 23.76,-61.57 z M 716.523,2936.42 c 38.805,-10.28 76.688,-22.71 110.594,-50.95 0.41,21.89 -7.238,38.36 -9.898,55.64 -3.977,25.82 -12.703,50.91 -19.156,76.37 -2.239,8.83 -7.223,12.06 -16.45,12.81 -61.804,4.98 -119.441,24.69 -174.277,52.54 -33.43,16.97 -59.617,41.28 -69.984,79.47 -3.868,14.25 -11.704,26.56 -22.782,37.12 -27.105,25.82 -39.468,55.58 -19.902,91.8 -6.891,9.27 -17.137,11.64 -25.465,16.8 -76.797,47.56 -117.933,115.95 -120.398,206.7 -1.012,37.17 13.113,69.55 34.297,99.05 24.152,33.63 52.773,62.62 90.691,80.84 6.082,2.93 9.676,6.57 11.996,12.95 17.809,48.95 58.07,67.21 104.988,76.63 16.438,3.31 34.059,1.08 49.149,9.4 6.832,52.92 29.648,77.5 79.035,86.03 33.172,5.73 60.652,-4.85 78.437,-32.86 11.711,-18.44 24.809,-27.63 46.844,-25.93 20.664,1.59 37.457,-6.97 49.504,-24.45 2.965,-4.29 5.297,-9.62 11.973,-12.1 20.894,19.29 38.797,44.46 70.426,48.56 28.475,3.7 56.735,4.06 82.835,-12.95 -8.35,20.11 -20.99,36.46 -28.07,56.12 -9.42,26.11 -12.8,52.39 -10.85,79.74 0.49,6.96 0.13,14 0.92,20.92 1.21,10.69 -3.02,17.42 -12.54,22.33 -10.979,5.67 -21.362,12.5 -31.94,18.92 -7.355,4.47 -14.738,9.54 -18.105,17.53 -12.008,28.46 -22.059,57.57 -19.793,89.15 2.097,29.32 -8.457,54.54 -24.911,77.54 -9.929,13.87 -27.707,12.45 -41.964,17.69 -9.317,3.42 -19.477,4.4 -29.137,7.51 -16.027,5.17 -25.656,0.07 -34.18,-15.44 -18.859,-34.31 -8.609,-71 25.711,-92.32 18.484,-11.48 39.059,-18.56 58.488,-28.03 8.329,-4.07 16.446,-8.6 24.422,-13.32 7.719,-4.56 11.93,-11.23 13.539,-20.49 2.106,-12.11 6.028,-23.91 9.059,-35.86 3.332,-13.16 14.676,-17.26 25.191,-21.83 9.969,-4.34 20.727,-7.28 20.875,-22.42 -10.172,-6.78 -20.664,-4.84 -30.656,-0.74 -10.984,4.52 -22.351,6.16 -33.953,7.12 -24.527,2.03 -41.352,-10.94 -54.59,-29.38 -7.855,-10.93 -6.551,-22.24 3.52,-31.43 19.035,-17.4 41.004,-19.67 53.019,5.66 2.317,4.88 5.024,9.59 7.41,14.44 5.727,11.66 15.25,16.87 27.996,16.94 7.809,0.05 42.959,-8.4 57.059,-14.35 -10.19,-4.98 -19.031,-3.78 -27.742,-2.72 -7.692,0.94 -15.324,2.36 -22.992,3.5 -12.328,1.83 -21.25,-2.31 -25.575,-14.6 -1.281,-3.65 -2.539,-7.37 -4.359,-10.77 -16.035,-29.85 -55.426,-34.16 -78.012,-8.61 -13.004,14.71 -14.226,34.65 -2.402,51.1 15.738,21.89 35.777,36.14 64.363,34.18 5.356,-0.36 10.754,-0.05 18.18,-0.05 -8.934,19.37 -17.164,37.38 -19.016,57.33 -1.043,11.2 -10.558,15.27 -18.433,19.19 -21.438,10.68 -43.403,20.35 -65.41,29.84 -20.329,8.77 -33.379,23.93 -43.11,43.41 -13.754,27.54 -7.512,51.98 7.625,76.63 8.461,13.78 19.946,18.11 34.906,17.9 24.36,-0.35 47.368,-7.99 70.586,-13.68 14.786,-3.63 24.723,-16.15 30.723,-29.85 10.957,-25.01 19.422,-50.8 12.316,-78.82 -0.757,-2.98 -2.414,-6.46 -1.554,-9 7.179,-21.17 12.277,-43.42 24.383,-62.37 9.695,-15.18 24.914,-24.8 41.433,-31.97 5.51,6.6 2.57,12.71 0.27,17.95 -8.22,18.75 -8.95,39.16 -13.645,58.68 -4.031,16.75 2.135,32.44 10.335,46.61 9.4,16.26 30.61,21.14 51.69,13.56 5.74,-2.06 10.29,-7.29 18.42,-6.22 3.11,11.1 3.95,22.54 4.01,34.96 0.13,27.06 6.34,53.38 18.95,77.87 31.24,60.63 77.46,105.85 139.83,133.32 45.4,19.99 93.83,20.61 141.56,12.41 23.96,-4.12 42.23,-21.67 54.99,-43.19 4.34,-7.31 8.51,-14.72 12.65,-22.14 10.92,-19.55 25.88,-35.02 47.43,-42.02 29.61,-9.61 37.14,-30.23 29.3,-60.47 -1.15,-4.44 -3.06,-8.85 0.22,-14.58 84.12,30.19 159.43,11.49 228.8,-42.36 70.06,-54.39 103.47,-124.8 96.08,-213.48 10.31,-0.3 12.23,7.93 17.32,12.09 24.53,20.02 51.9,30.98 83.48,21.27 27.37,-8.42 35.52,-31.4 21.19,-56.24 -3.34,-5.79 -3.63,-10.72 -3,-17.28 3.08,-31.61 -8.66,-49.56 -38.85,-59.93 -21.97,-7.55 -43.53,-8.23 -64.77,4.24 -19.74,11.58 -31.4,6.25 -40.76,-14.36 -24.66,-54.33 -56.91,-102.77 -108.35,-135.95 -11.79,-7.61 -24.95,-12.13 -37.29,-18.49 0.01,-7.48 6.95,-7.23 11.17,-9.83 18.89,-11.64 33.13,-26.95 42.68,-47.4 18.47,-39.55 6.19,-75.42 -16.15,-106.98 -17.75,-25.07 -47.39,-22.96 -74.73,-16.37 -29.05,7 -54.46,21.59 -77.17,40.93 -22.16,18.87 -47.55,31.78 -75.72,38.35 -21.09,4.93 -41.79,10.99 -62.61,16.8 -35.78,9.97 -70,24.09 -106.81,38.66 -4.31,-22.29 -12.85,-41.72 -7.88,-65.65 6.59,-31.75 5.09,-64.81 5.82,-97.36 0.34,-14.73 -1.38,-29.94 1.72,-44.07 4.43,-20.2 12.42,-39.61 19.24,-60.4 13.16,7.15 23.18,17.02 38.12,17.9 10.99,0.64 17.15,9.29 19.9,20.03 2.3,8.95 4.54,17.78 10.47,25.55 15.54,20.33 41.49,25.94 61.51,12.54 25.69,-17.19 32.1,-41.91 16.72,-65.82 -14.05,-21.83 -33.56,-33.61 -60.25,-31.38 -6.95,0.58 -13.9,1.18 -20.84,1.78 -32.46,2.8 -59.7,-15.08 -71.02,-46.49 -10.25,-28.44 -20.75,-56.75 -46.05,-76.78 7.52,-5.61 14.65,-10.07 20.78,-15.63 24.89,-22.54 27.17,-58.26 4.82,-82.83 -11.97,-13.15 -24.75,-25.88 -43.3,-29.8 -4.1,-0.86 -7.01,-2.75 -7.08,-7.94 2.14,-0.27 4.67,-1.4 6.46,-0.69 30.76,12.23 62.19,6.11 91.03,-2.94 49.71,-15.6 91.52,-0.92 131.46,25.38 16.69,10.98 31.15,25.48 46.1,38.97 22.23,20.07 48.42,29.38 77.9,32.01 24.85,2.22 49.55,1.38 74.29,-0.66 31.54,-2.61 55.62,-16.57 70.88,-45.28 10.21,-19.23 19.59,-38.83 24.58,-59.91 4.07,-17.22 12.39,-31.53 23.46,-44.62 12.5,-14.78 25.59,-29.05 38.01,-43.88 17.61,-21.01 28.45,-44.26 21.93,-72.64 -1.89,-8.27 -8.06,-15.07 -8.35,-25.26 13.52,-6.12 28.38,-9.6 42.75,-14.52 41.84,-14.35 73.28,-41.21 95.96,-79.39 40.67,-68.46 69.17,-141.64 85.94,-219.25 9.62,-44.54 19.04,-89.26 17.08,-135.45 -1.66,-39.37 -10.99,-76.32 -30.86,-110.49 -9.71,-16.7 -19.92,-33.07 -26.5,-51.5 -5.02,-14.06 -6.19,-28.45 -8.42,-42.97 -7.23,-47.04 -8.97,-95.68 -34.49,-138.18 -4.91,-8.18 -3.53,-16.5 -1.33,-24.76 13.07,-49.01 -1.43,-94.05 -24.19,-135.72 -16.32,-29.88 -44.15,-48.5 -81.05,-42.42 -34.29,5.64 -65.96,-3.85 -97.86,-13.23 -54.19,-15.93 -106.76,-14.5 -157.14,13.48 -19.34,10.74 -32.52,28 -46.58,44.24 -19.95,23.01 -42.51,42.53 -70.43,55.31 -2.79,1.27 -5.64,2.55 -8.6,3.26 -2.18,0.52 -4.57,0.1 -6.51,0.1 -5.3,-4.77 -3.09,-10.4 -2.77,-15.55 1.7,-27.94 -9.39,-50.54 -31.79,-65.9 -35.23,-24.16 -65.1,-54.21 -96.39,-82.8 -44.6,-40.75 -91.72,-78.53 -145.61,-106.2 -56.51,-29.01 -116.59,-45.19 -181.01,-41.33 -8.51,0.51 -16.72,1.92 -27.05,4.62 -0.62,-7.36 -1.64,-13.9 -1.64,-20.43 0.02,-65.17 -1.74,-130.42 1.18,-195.46 1.39,-31.04 4.3,-62.5 15.92,-93.03 20.06,-52.74 33.64,-107.67 43.7,-163.32 0.26,-1.43 1.07,-2.75 1.93,-4.88 10.14,2.56 13.99,12.17 19.12,19 32.91,43.88 64.89,88.45 97.28,132.73 14.62,19.99 21.83,41.86 20.97,67.01 -0.79,23.22 0.58,46.52 1.35,69.78 0.76,22.69 -1.75,44.74 -11.27,66.01 -8.17,5.6 -15.5,-3.78 -24.2,-1.6 -18.92,4.75 -35.02,22.75 -32.93,42.12 2.56,23.78 11.34,44.49 33.76,57.67 28.03,16.48 58.58,18.53 89.7,18.25 8.47,-0.08 17.03,-1.49 25.36,-3.21 32.58,-6.71 44.09,-37.06 24.02,-63.54 -11.36,-14.98 -25.31,-27.3 -42.35,-35.49 -11.14,-5.36 -15.63,-14.09 -16.46,-25.82 -2.88,-40.95 -6.05,-81.88 -8.83,-122.83 -0.35,-5.12 -1.6,-10.76 3.3,-16.79 7.54,2.05 11.39,8.74 16.06,14.42 20.64,25.1 44.79,43.73 77.92,50.89 40.72,8.79 80.54,21.66 121.21,30.76 25.89,5.8 37.46,22.04 42.56,45.86 3.91,18.25 11.14,35.32 19.12,52.14 15.28,32.2 72.35,48.9 98.59,36.78 36.98,-17.08 60.76,-59.57 51.09,-96.1 -7.66,-28.93 -20.01,-53.34 -43.72,-71.52 -21.35,-16.37 -53.47,-18.95 -73.89,-3.61 -18.54,13.92 -37.52,12.45 -56.84,5.89 -31.47,-10.69 -61.91,-24.24 -93.71,-34.19 -13.42,-4.2 -26.78,-7.65 -40.68,-8.49 -22.83,-1.38 -41.31,-10.24 -56.36,-27.85 -37.68,-44.08 -76.31,-87.34 -111.24,-133.71 -28.35,-37.64 -57.29,-74.78 -81.21,-115.61 -15.07,-25.72 -26.31,-51.99 -28.77,-82.2 -2.62,-32.29 -5.81,-64.06 -4.81,-96.93 1.68,-55.511 4.17,-111.128 8.37,-166.3 5.13,-67.261 6.93,-134.629 11.24,-201.879 4.42,-68.832 3.16,-138.011 4.65,-207.043 0.79,-36.437 2.63,-72.847 3.14,-109.289 1.12,-78.8 -7.67,-156.027 -39.47,-229.1598 -14.46,-33.25 -40.6,-58.1172 -62.94,-85.68748 -4.25,-5.242189 -9.89,-7.3125 -17.85,-4.5 -6.75,11.37888 -10.126,24.66798 -10.657,38.67968 -1.18,31.0195 -1.149,61.9996 2.535,92.9296 1.552,13.051 1.812,26.309 1.882,39.481 0.22,45.777 0.14,91.55 0.11,137.328 -0.05,84.562 3.84,168.98 8.38,253.41 2.08,38.672 0.31,77.551 0.52,116.34 0.09,16.851 -1.14,33.972 6.43,49.718 8.01,-0.046 6.77,-5.976 6.73,-10.007 -0.64,-68.27 -0.18,-136.571 -2.71,-204.77 -2.25,-60.359 -7.86,-120.582 -7.09,-181.09 1.17,-91.539 1.44,-183.082 -0.9,-274.6091 -0.3,-11.4024 -0.04,-22.8203 2.48,-35.3399 17.41,15.668 31.42,33.3985 44.33,51.7774 18.91,26.9296 28.41,58.1206 37.38,89.3906 16.66,58.059 21.02,117.66 15.62,177.211 -6.93,76.527 -5.74,153.34 -11.59,229.871 -2.66,34.758 -2.02,69.758 -2.97,104.66 -1.13,41.848 -0.06,83.93 -4.09,125.508 -6.69,68.941 -3.46,137.941 -5.7,206.88 -0.85,26.28 -2.55,52.3 -0.79,78.82 2.59,39.24 14.4,73.33 36.87,105.53 39.34,56.38 76.55,114.33 119.1,168.37 25.31,32.15 51.07,64.25 83.81,89.81 12.03,9.39 25.11,17.01 39.69,17.68 43.67,2.02 81.9,21.57 121.93,35.31 21.18,7.28 41.45,17.55 63,17.22 7.28,1.87 6.06,8.07 8.96,11.31 5.19,5.78 11.31,12.32 19.72,7.3 9.58,-5.72 6.97,-14.11 2.06,-22 -1.16,-1.85 -2.3,-3.71 -3.85,-6.23 13.26,-12.33 28.03,-12.03 43.15,-6.53 39.88,14.5 65.22,59.33 57.29,100.58 -4.02,20.9 -30.48,48.36 -51.91,51.66 -27.48,4.22 -50.44,-5.5 -67.57,-27.29 -9.66,-12.3 -16.04,-27.05 -18.76,-42.12 -6.58,-36.48 -29.43,-56.71 -63.01,-66.23 -40.82,-11.57 -81.36,-24.63 -123.83,-29.4 -15.95,-1.79 -29.28,-9.01 -41.31,-19.4 -14.14,-12.23 -25.46,-27.04 -38.34,-40.41 -5.23,-5.42 -8.92,-13 -17.67,-13.19 -4.96,1.67 -5.23,5.7 -5.28,9.51 -0.54,39.55 -0.11,79.01 7.66,118.05 1.95,9.82 3.23,20.11 2.56,30.03 -1.26,18.77 7.35,30.68 22.82,39.39 12.28,6.92 22.7,16.36 31.4,27.29 18.12,22.73 13.12,38.07 -15.08,45.47 -36.39,9.55 -71.96,8.14 -105.25,-11.45 -15.94,-9.39 -23.49,-24.23 -24.8,-42.27 -2.08,-28.86 10.61,-38.77 39.98,-31.45 4.75,3.85 3.26,9.92 4.94,14.91 1.78,5.33 4.62,9.84 9.49,12.77 6.9,4.13 13.56,3.55 18.85,-2.54 5.09,-5.87 2.67,-11.8 -2.04,-16.53 -4.87,-4.88 -10.42,-9.08 -16.36,-14.17 13.08,-51.28 5.06,-103.37 7.68,-155.01 0.95,-18.81 -4.92,-34.83 -15.46,-49.77 -39.67,-56.2 -78.88,-112.74 -119.29,-168.41 -8.58,-11.82 -11.17,-27.15 -22.76,-36.77 -3.54,1.76 -4.23,4.68 -4.44,7.85 -3.85,59.1 -20.66,115.52 -35.12,172.48 -12.17,47.95 -19.56,96.76 -26.08,145.87 -7.1,53.45 -4.03,106.73 -4.13,160.13 -0.03,12.36 0.26,24.68 2.95,37.71 -18.995,8.26 -37.569,14.52 -57.819,19.8 -3.871,-13.44 -3.047,-25.75 -1.082,-37.69 7.918,-48.07 13.262,-96.44 17.235,-144.96 0.707,-8.66 3.722,-18.78 -5.489,-25.82 -9.023,2.6 -10.769,9.96 -13.07,17.6 -11.598,38.5 -28.699,74.98 -42.148,112.85 -7.039,19.82 -22.356,36.86 -34.75,54.58 -24.832,35.5 -47.469,72.29 -66.036,111.44 -8.625,18.19 -23.597,28.9 -43.144,41.97 9.055,-26.74 22.109,-46.63 31.824,-68.04 22.453,-49.47 53.016,-94.26 81.274,-140.34 22.128,-36.08 35.574,-75.06 45.656,-115.9 13.883,-56.25 30.144,-111.88 49.062,-166.72 17.231,-49.95 27.278,-101.25 30.507,-154.25 2.74,-44.95 2.65,-89.9 4.55,-134.81 1.37,-32.42 6.58,-64.63 8,-97.169 1.96,-44.879 5.5,-89.68 7.97,-134.539 0.72,-13.051 0.11,-26.18 0.11,-41.371 -8.61,4.449 -6.92,11.019 -7.32,16.23 -4.39,57.129 -6.19,114.59 -13.44,171.348 -10.623,83.181 -12.099,166.851 -18.388,250.241 -2.504,33.17 -9.875,65.7 -19.766,97.58 -22.438,72.31 -44.859,144.59 -61.418,218.61 -8.352,37.32 -25.387,71.8 -46.938,103 -40.23,58.25 -69.828,121.91 -100.804,185.08 -14.043,28.63 -22.613,59.15 -35.488,88.12 -10.739,24.16 -27.43,42.73 -47.247,59.2 -3.582,2.98 -7.461,5.61 -13.738,4.41 -2.504,-24.07 8.934,-44.58 18.02,-65.48 6.148,-14.14 13.636,-27.52 16.73,-43.02 3.406,-17.07 5.024,-33.44 -1.801,-50.18 -2.535,-6.22 -3.285,-13.77 -2.757,-20.55 2.492,-32.06 -3.118,-63.36 -8.825,-94.53 -4.703,-25.68 -17.199,-47.9 -36.207,-66.08 -6.699,-6.41 -13.539,-12.79 -20.984,-18.27 -17.024,-12.55 -30.383,-26.79 -39.262,-47.18 -21.457,-49.28 -59.707,-83.45 -105.949,-109.88 -21.465,-12.27 -44.809,-18.51 -68.207,-20.88 -49.18,-4.96 -98.199,-14.47 -148.051,-10.33 -20.094,1.67 -39.887,4.25 -58.008,14.34 -13.484,7.51 -25.093,18.33 -28.66,32.28 -10.008,39.13 -16.527,79.03 -2.914,118.96 2.445,7.17 6.262,13.87 9.352,20.59 -3.871,6.37 -10.66,6.65 -15.961,9.38 -83.9026,43.25 -132.3596,114.72 -157.55884,202.85 -10.3125,36.07 -7.51172,73.69 3.62114,110.19 5.8085,19.05 10.4414,37.55 5.9687,58.79 -5.4961,26.11 7.0586,49.95 20.9844,71.72 20.1015,31.43 42.8984,61.76 73.1056,83.2 41.644,29.55 64.191,70.57 79.535,116.38 14.391,42.96 39.719,78.42 68.777,111.7 17.129,19.62 39.34,32.34 64.828,38.86 6.653,1.7 14.102,1.61 20.211,9.55 -9.519,15.43 -15.656,33.26 -17.461,52.57 -4.98,53.27 2.047,103.07 38.165,145.68 22.078,26.04 51.339,40 82.988,48.02 23.023,5.83 46.726,9.57 70.711,12.25 60.797,6.78 113.98,-15.49 167.383,-38.21 14.535,-6.19 25.472,-17.11 31.933,-32.18 5.934,-13.85 18.578,-22.15 28.168,-34.27 22.336,10.75 44.172,19.88 68.164,23.14 11.613,1.57 22.727,4.32 34.27,0.22 2.769,-0.99 6.222,-1.54 8.98,-0.83 35.367,9.16 68.715,-0.69 102.625,-9.19 31.539,-7.91 62.843,-15.81 92.013,-30.61 16.84,-8.55 32.16,-19.37 42.41,-35.14 14.57,-22.41 35.12,-36.58 58.39,-47.98 22.9,-11.22 45.8,-22.38 67.26,-36.39 56.48,-36.86 91.66,-88.4 108.06,-153.5 3.54,-14.02 8.38,-27.73 9.99,-44.35 42.28,28.46 74.03,60.4 82.69,110.96 5.09,29.68 14.33,58.62 38.07,81.44 -12.54,25.07 -2.17,47.27 10.18,69.3 9.76,17.43 7.19,37.69 -5.55,51.57 -3.6,3.93 -7.91,4.09 -12.51,4.76 -63.71,9.27 -118.57,38.37 -168.67,77.07 -17.68,13.65 -33.43,30.11 -44.5,49.87 -4.23,7.55 -12.22,16 -6,25.59 6.27,9.64 17.21,9.06 27.34,8.44 36.77,-2.24 68.48,-17.29 97.65,-38.78 43.67,-32.16 84.22,-67.48 114.35,-112.9 11.2,-1.46 20.53,-1.36 25.47,10.96 8.95,22.3 24.6,38.92 48.04,50.58 -23.67,18.35 -21.91,41.82 -18.31,66.26 5.17,35.09 19.97,64.37 47.2,87.65 11.66,9.96 21.76,21.81 32.17,33.17 26.87,29.34 28.51,82.27 6.97,112.46 -16.6,23.26 -29.76,48.96 -51.16,68.76 -18.72,17.32 -40.27,28.87 -65.19,33.41 -44.03,8 -88.58,13.04 -131.86,25.28 -16.23,4.59 -31.94,10.94 -49.24,12.51 -29.12,2.64 -53.7,-3.48 -77.47,-22.42 -34.6,-27.57 -76.6,-44.41 -120.32,-42.12 -69.75,3.65 -120.238,-26.54 -162.531,-76.87 -28.375,-33.76 -53.571,-69.59 -74.864,-108.57 -22.242,-40.72 -25.332,-81.36 -11.015,-124.49 6.207,-18.7 7.269,-37.95 5.242,-57.48 -1.109,-10.65 -4.086,-20.42 -16.164,-22.3 -12.324,-1.92 -17.309,7.44 -22.192,16.68 -6.035,11.43 -7.086,23.61 -6.859,36.12 0.395,21.71 1.606,43.5 7.098,64.46 3.836,14.66 -1.254,25.14 -9.137,36.41 -33.172,47.46 -77.852,80.82 -128.785,106.69 -4.125,2.1 -8.856,3.3 -8.719,9.26 l -0.445,-0.53 c 30.367,-10.62 58.726,-25.84 87.011,-40.69 28.747,-15.1 46.129,-43.34 67.649,-70.29 12.703,39.08 29.625,72.55 50.84,103.84 4.043,5.96 5.636,12.39 5.594,19.65 -0.254,42.54 -0.208,85.08 -0.356,127.62 -0.008,2.14 -0.309,4.66 -3.246,5.28 -21.285,-8.67 -29.203,-23.92 -26.215,-47.01 2.067,-15.98 0.457,-32.44 0.336,-48.68 -0.055,-7.46 -0.195,-15.05 -8.691,-19.32 -5.856,6.26 -5.52,12.95 -4.02,19.94 9.621,24.23 3.543,48.59 3.965,74.35 -6.934,-2.99 -12.715,-2.11 -11.816,-9.04 2.843,-21.95 5.625,-43.91 8.429,-65.86 -15.039,20.09 -10.156,45.84 -18.015,67.99 -11.883,-0.55 -22.938,0.66 -31.735,-8.18 -0.101,-10.05 2.012,-19.53 4.731,-29.32 10.761,-38.67 20.48,-77.64 30.531,-116.51 1.848,-7.15 4.723,-14.51 -2.348,-22.62 -35.593,32.25 -76.09,54.02 -119.433,70.89 -3.008,1.17 -4.848,3.68 -4.832,7.17 l -0.325,-0.59"
         style="fill:#231f20;fill-opacity:1;fill-rule:nonzero;stroke:none"
         id="path12" />
      <path
         d="m 201.852,3304.66 c 4.527,-6.37 6.773,-14.97 19.582,-16.94 -4.286,10.3 -9.922,15.59 -19.582,16.94 z m 170.125,-281.02 c -17.829,4.69 -30.704,7.8 -45.571,-7.44 16.981,-1.09 29.375,-2.36 45.571,7.44 z m 316.937,-105.31 c -20.195,-0.12 -33.172,14.43 -48.383,24.17 -45.152,28.9 -82.679,67.4 -124.656,100.35 -13.918,10.92 -25.473,13.94 -42.062,7.18 -22.106,-9 -45.286,-15.39 -68.102,-22.59 -8.59,-2.71 -15.809,-5.64 -16.234,-16.61 -0.391,-9.99 -7.102,-17.78 -14.071,-23.3 -19.324,-15.31 -38.496,-31.3 -62.519,-39.22 -31.192,-10.29 -56.547,-1.67 -70.305,23.01 -7.746,13.9 -8.859,29.57 -3.68,42.73 17.383,44.18 55.094,72.99 102.246,51.34 29.11,-13.36 51.336,-7.22 74.84,8.13 9.739,6.36 21.02,9.32 31.012,13.4 1.996,9.67 -5.453,11.76 -9.879,14.96 -30.723,22.15 -61.848,43.76 -92.719,65.72 -29.781,21.17 -55.086,47.26 -80.41,73.37 -6.902,7.11 -12.828,15.51 -23.199,20.83 -9.73,-10.51 -20.125,-19.89 -36.367,-20.13 -18.153,-0.27 -33.27,6.12 -47.117,16.69 -26.368,20.14 -42.278,47.08 -48.383,79.31 -2.043,10.79 -4.324,23.42 7.644,31.64 l -0.648,0.52 c -2.848,-48.46 19.355,-83.05 60.094,-106.75 16.707,-9.72 34.578,-7.34 48.285,4.62 -10.246,16.14 -38.125,20.46 -33.473,47.28 20.844,3.58 36.035,-4.69 44.731,-24.11 2.48,-5.55 2.601,-11.99 7.511,-16.65 32.5,-30.86 60.676,-66.34 98.434,-91.58 40.516,-27.08 80.988,-54.23 121.32,-81.58 4.817,-3.26 11.524,-5.53 11.504,-15.61 -25.328,-10.66 -51.676,-21.26 -77.578,-32.85 -15.137,-6.77 -29.109,-7.09 -44.703,-0.68 -14.77,6.07 -30.699,11.11 -47.086,8.54 -25.625,-4.03 -43.406,-18.99 -54.402,-42.31 -8.036,-17.03 -6.067,-33.71 4.855,-48.05 10.738,-14.11 26.406,-17.55 43.777,-13.84 27.539,5.87 48.387,23.17 69.446,40.11 3.535,2.85 6.961,6.37 5.789,12.89 -11.922,-1.27 -23.961,-3.52 -35.992,-3.47 -7.821,0.03 -18.082,-0.76 -20.262,10.95 -1.742,9.36 5.094,17.36 17.937,20.37 13.102,3.06 26.563,2.81 38.957,-2.1 10.188,-4.03 18.45,-3.41 28.024,1.71 27.535,14.7 57.512,22.34 87.871,28.79 12.269,2.61 22.117,0.5 32.078,-7.77 19.664,-16.32 39.918,-31.93 57.824,-50.25 24.981,-25.56 53.364,-47.08 81.469,-68.95 8.773,-6.83 21.137,-9.17 26.137,-20.74 l 0.445,0.53"
         style="fill:#231f20;fill-opacity:1;fill-rule:nonzero;stroke:none"
         id="path14" />
      <path
         d="m 116.57,3369.31 c -1.215,31.16 34.922,58.01 72.125,44.69 40.223,-14.4 74.231,-37.65 88.946,-81.27 6.117,-18.14 6.629,-23.96 -1.356,-46.04 22.512,-25.32 45.406,-51.3 68.59,-77.03 8.941,-9.92 20.734,-16.46 32.547,-21.83 44.656,-20.31 83.172,-49.99 122.273,-78.74 37.321,-27.44 72.422,-57.53 106.614,-88.87 32.421,-29.72 67.41,-56.57 105.636,-78.81 1.864,-1.08 3.067,-3.3 4.578,-4.99 0,0 0.325,0.59 0.329,0.59 -7.403,-1.64 -13.332,1.28 -19.43,5.25 -25.223,16.4 -50.375,32.83 -73.602,52.09 -40.398,33.51 -78.086,70.22 -120.832,100.99 -36.984,26.63 -71.511,58.29 -113.476,75.71 -56.36,23.39 -88.215,70.05 -125.731,113.98 14.032,17.27 7.821,33.73 0.532,50.39 -13.571,31.01 -38.735,49.56 -68.504,62.09 -33.231,13.97 -44.797,10.1 -68,-17.85 -3.243,-3.9 -5.063,-10.06 -11.887,-9.83 l 0.648,-0.52"
         style="fill:#231f20;fill-opacity:1;fill-rule:nonzero;stroke:none"
         id="path16" />
    </g>
  </g>
</svg>
